# xmcd CD database file
#
# Track frame offsets:
#	150
#	22626
#	58086
#	84439
#	107024
#	136557
#	152998
#	180888
#
# Disc length: 2588 seconds
#
# Revision: 0
# Processed by: cddbd v1.5.1PL0 Copyright (c) Steve Scherf et al.
# Submitted via: CDex 1.51
#
DISCID=4f0a1a08
DTITLE=Nils Petter Molvaer - Khmer
DYEAR=1997
DGENRE=Jazz
TTITLE0=Khmer
TTITLE1=Tloen
TTITLE2=Access - Song of Sand 1
TTITLE3=On Stream
TTITLE4=Platonic Years
TTITLE5=Phum
TTITLE6=Song Of Sand 2
TTITLE7=Exit
EXTD=YEAR: 1997
EXTT0=
EXTT1=
EXTT2=
EXTT3=
EXTT4=
EXTT5=
EXTT6=
EXTT7=
PLAYORDER=
